<?xml version="1.0" standalone="no"?>
<!DOCTYPE svg PUBLIC "-//W3C//DTD SVG 20010904//EN"
 "http://www.w3.org/TR/2001/REC-SVG-20010904/DTD/svg10.dtd">
<svg version="1.0" xmlns="http://www.w3.org/2000/svg"
 width="514.000000pt" height="513.000000pt" viewBox="0 0 514.000000 513.000000"
 preserveAspectRatio="xMidYMid meet">

<g transform="translate(0.000000,513.000000) scale(0.100000,-0.100000)"
fill="#000000" stroke="none">
<path d="M3898 4825 c-269 -68 -530 -316 -744 -707 -85 -155 -130 -260 -344
-798 l-197 -495 -54 -8 c-155 -24 -423 17 -549 84 -171 91 -295 330 -276 533
18 190 145 429 295 553 116 95 223 141 433 183 32 6 68 19 80 30 19 15 20 20
9 34 -20 23 -86 20 -204 -10 -343 -87 -651 -289 -748 -490 -124 -261 -77 -525
131 -735 170 -172 411 -270 703 -286 l117 -6 -114 -221 c-62 -122 -154 -291
-204 -376 -78 -132 -95 -155 -114 -153 -13 1 -72 7 -132 14 -138 15 -473 6
-614 -16 -389 -61 -697 -225 -794 -423 -30 -61 -33 -75 -33 -162 0 -83 3 -102
28 -151 78 -161 310 -272 532 -256 253 19 536 169 784 417 86 86 225 249 271
318 l15 23 170 -35 c429 -87 644 -156 929 -297 383 -190 549 -404 572 -739 7
-99 -5 -176 -42 -263 -43 -102 -51 -137 -34 -147 19 -12 55 -3 107 26 122 70
165 242 114 458 -45 187 -122 331 -250 467 -252 269 -786 546 -1337 694 l-102
27 52 82 c28 45 125 229 216 409 137 270 169 327 186 327 43 0 274 70 379 115
335 143 665 392 888 673 130 163 258 392 314 562 51 153 66 241 67 390 0 131
0 136 -29 189 -35 63 -78 101 -164 144 -57 28 -75 32 -160 34 -59 1 -118 -3
-153 -12z m282 -234 c40 -29 52 -96 40 -221 -33 -349 -184 -648 -480 -954
-271 -280 -548 -455 -865 -546 -38 -11 -71 -18 -73 -15 -6 6 374 752 463 905
266 463 541 775 744 842 66 21 134 17 171 -11z m-2276 -2825 c48 -8 90 -17 93
-20 10 -10 -133 -182 -237 -286 -166 -166 -346 -276 -549 -337 -121 -36 -287
-38 -381 -5 -130 46 -190 108 -190 199 0 71 30 133 97 200 118 117 427 229
743 267 67 8 336 -3 424 -18z"/>
</g>
</svg>
